<?xml version="1.0" encoding="iso-8859-1"?>
<!--Generator: Adobe Illustrator 16.0.0, SVG Export Plug-In . SVG Version: 6.00 Build 0)-->
<!DOCTYPE PUBLIC "-//W3C//DTD SVG 1.1//EN""http://www.w3.org/Graphics/SVG/1.1/DTD/svg11.dtd">
<svg xmlns="http://www.w3.org/2000/svg" width="493.4" height="493.4">
  <path d="M490.5 239.3l-109.6-100c-3-2.4-6.4-2.9-10-1.4a8.3 8.3 0 00-5.5 8.3v64H9.1c-2.6 0-4.8.8-6.5 2.5a8.9 8.9 0 00-2.6 6.6V274c0 2.7.9 4.9 2.6 6.6a8.9 8.9 0 006.5 2.5h356.3v64c0 3.8 1.9 6.6 5.5 8.3a9 9 0 0010-1.7l109.6-101.1a9.3 9.3 0 000-13.4z"/>
</svg>
