<?xml version="1.0" encoding="iso-8859-1"?>
<!--Generator: Adobe Illustrator 16.0.0, SVG Export Plug-In . SVG Version: 6.00 Build 0)-->
<!DOCTYPE svg PUBLIC "-//W3C//DTD SVG 1.1//EN""http://www.w3.org/Graphics/SVG/1.1/DTD/svg11.dtd">
<svg xmlns="http://www.w3.org/2000/svg" width="493.4" height="493.4">
  <path d="M490.8 212.7a8.9 8.9 0 00-6.6-2.6H128v-64c0-3.8-1.8-6.5-5.4-8.2a9 9 0 00-10 1.7L2.9 240.6a9.4 9.4 0 000 13.5l109.6 100c3 2.4 6.4 2.9 10 1.3a8.3 8.3 0 005.4-8.2v-64h356.3c2.7 0 4.9-.9 6.6-2.6a8.9 8.9 0 002.6-6.5v-54.8c0-2.7-.9-5-2.6-6.6z"/>
</svg>
