<?xml version="1.0" encoding="UTF-8"?>
  <!DOCTYPE svg  PUBLIC '-//W3C//DTD SVG 1.1//EN''http://www.w3.org/Graphics/SVG/1.1/DTD/svg11.dtd'>
<svg enable-background="new 0 0 493.353 493.352" version="1.1" viewBox="0 0 493.35 493.35" xml:space="preserve" xmlns="http://www.w3.org/2000/svg">
	<path d="m490.79 212.68c-1.718-1.713-3.901-2.568-6.57-2.568h-356.31v-63.953c0-3.809-1.812-6.567-5.424-8.28-3.621-1.521-6.952-0.949-9.995 1.713l-109.64 101.07c-1.903 1.906-2.853 4.19-2.853 6.853 0 2.474 0.95 4.665 2.853 6.567l109.64 99.928c3.046 2.474 6.377 2.956 9.995 1.427 3.612-1.52 5.424-4.278 5.424-8.278v-63.953h356.32c2.663 0 4.854-0.859 6.564-2.567 1.711-1.711 2.566-3.897 2.566-6.563v-54.821c3e-3 -2.665-0.856-4.858-2.567-6.573z"></path>
</svg>
