<svg
  xmlns="http://www.w3.org/2000/svg"
  xmlns:xlink="http://www.w3.org/1999/xlink"
  width="48px" height="40px">
  <path fill-rule="evenodd"  fill="rgb(255, 255, 255)"
        d="M20.962,10.388 C14.886,10.558 10.385,15.267 10.385,21.374 C10.385,25.954 14.061,29.618 18.665,29.618 L20.107,29.618 C23.264,29.618 25.823,27.046 25.823,23.874 L25.823,23.874 C25.823,21.973 24.278,20.434 22.381,20.458 C21.751,20.466 21.153,20.741 20.721,21.202 L20.104,21.862 C19.541,22.462 18.602,22.589 17.950,22.087 C17.201,21.511 17.120,20.427 17.746,19.746 L18.149,19.308 C19.265,18.094 20.833,17.405 22.477,17.405 L22.477,17.405 C26.002,17.405 28.861,20.277 28.861,23.821 L28.861,23.821 C28.861,28.709 24.918,32.672 20.055,32.672 L18.677,32.672 C12.389,32.672 7.291,27.548 7.291,21.228 L7.291,21.228 C7.291,13.551 13.483,7.328 21.120,7.328 L40.709,7.328 C44.736,7.328 48.000,4.047 48.000,-0.000 L21.201,-0.000 C9.492,-0.000 -0.000,9.541 -0.000,21.309 L-0.000,21.309 C-0.000,31.632 8.326,40.000 18.596,40.000 L20.144,40.000 C28.817,40.000 35.848,32.934 35.848,24.216 L35.848,23.409 C35.848,21.140 35.270,18.931 34.255,17.099 L36.152,17.099 C39.843,17.099 42.835,14.092 42.835,10.382 L42.835,10.382 L20.962,10.388 Z"/>
</svg>
