<?xml version="1.0" encoding="UTF-8"?>
<!DOCTYPE svg  PUBLIC '-//W3C//DTD SVG 1.1//EN''http://www.w3.org/Graphics/SVG/1.1/DTD/svg11.dtd'>
<svg enable-background="new 0 0 493.356 493.356" version="1.1" viewBox="0 0 493.36 493.36" xml:space="preserve" xmlns="http://www.w3.org/2000/svg">
	<path d="m490.5 239.28-109.63-99.929c-3.046-2.474-6.376-2.95-9.993-1.427-3.613 1.525-5.427 4.283-5.427 8.282v63.954h-356.31c-2.666 0-4.856 0.855-6.567 2.568-1.71 1.712-2.569 3.902-2.569 6.566v54.816c0 2.663 0.855 4.853 2.568 6.563 1.715 1.712 3.905 2.567 6.567 2.567h356.31v63.953c0 3.812 1.817 6.57 5.428 8.278 3.62 1.529 6.95 0.951 9.996-1.708l109.63-101.08c1.903-1.902 2.852-4.182 2.852-6.849 0-2.468-0.955-4.654-2.858-6.557z"/>
</svg>
